<?xml version="1.0" encoding="UTF-8" standalone="no"?><!DOCTYPE svg PUBLIC "-//W3C//DTD SVG 1.1//EN" "http://www.w3.org/Graphics/SVG/1.1/DTD/svg11.dtd"><svg width="100%" height="100%" viewBox="0 0 24 24" version="1.1" xmlns="http://www.w3.org/2000/svg" xmlns:xlink="http://www.w3.org/1999/xlink" xml:space="preserve" xmlns:serif="http://www.serif.com/" style="fill-rule:evenodd;clip-rule:evenodd;stroke-linecap:round;stroke-linejoin:round;stroke-miterlimit:1.5;"><path d="M22,4.565c0,-1.404 -1.14,-2.544 -2.544,-2.544l-14.912,0c-1.404,0 -2.544,1.14 -2.544,2.544l0,1.73c0,1.404 1.14,2.544 2.544,2.544l14.912,0c1.404,0 2.544,-1.14 2.544,-2.544l0,-1.73Z" style="fill:none;stroke:#5a5a5a;stroke-width:2px;"/><path d="M22,15.63c0,-2.099 -1.704,-3.803 -3.803,-3.803l-12.394,0c-2.099,0 -3.803,1.704 -3.803,3.803l0,2.588c0,2.099 1.704,3.803 3.803,3.803l12.394,0c2.099,0 3.803,-1.704 3.803,-3.803l0,-2.588Z" style="fill:none;stroke:#5a5a5a;stroke-width:2px;"/></svg>