<?xml version="1.0" encoding="UTF-8" standalone="no"?><!DOCTYPE svg PUBLIC "-//W3C//DTD SVG 1.1//EN" "http://www.w3.org/Graphics/SVG/1.1/DTD/svg11.dtd"><svg width="100%" height="100%" viewBox="0 0 24 24" version="1.1" xmlns="http://www.w3.org/2000/svg" xmlns:xlink="http://www.w3.org/1999/xlink" xml:space="preserve" xmlns:serif="http://www.serif.com/" style="fill-rule:evenodd;clip-rule:evenodd;stroke-linecap:round;stroke-linejoin:round;stroke-miterlimit:1.5;"><path d="M22,3.375c0,-0.747 -0.607,-1.354 -1.354,-1.354l-17.292,0c-0.747,0 -1.354,0.607 -1.354,1.354l0,0.921c0,0.748 0.607,1.354 1.354,1.354l17.292,0c0.747,0 1.354,-0.606 1.354,-1.354l0,-0.921Z" style="fill:none;stroke:#5a5a5a;stroke-width:2px;"/><path d="M22,10.354c0,-1.2 -0.975,-2.175 -2.176,-2.175l-15.648,0c-1.201,0 -2.176,0.975 -2.176,2.175l0,1.481c0,1.2 0.975,2.175 2.176,2.175l15.648,0c1.201,0 2.176,-0.975 2.176,-2.175l0,-1.481Z" style="fill:none;stroke:#5a5a5a;stroke-width:2px;"/><path d="M22,18.584c0,-1.129 -0.916,-2.045 -2.045,-2.045l-15.91,0c-1.129,0 -2.045,0.916 -2.045,2.045l0,1.392c0,1.128 0.916,2.045 2.045,2.045l15.91,0c1.129,0 2.045,-0.917 2.045,-2.045l0,-1.392Z" style="fill:none;stroke:#5a5a5a;stroke-width:2px;"/></svg>