<?xml version="1.0" encoding="UTF-8" standalone="no"?><!DOCTYPE svg PUBLIC "-//W3C//DTD SVG 1.1//EN" "http://www.w3.org/Graphics/SVG/1.1/DTD/svg11.dtd"><svg width="100%" height="100%" viewBox="0 0 24 24" version="1.1" xmlns="http://www.w3.org/2000/svg" xmlns:xlink="http://www.w3.org/1999/xlink" xml:space="preserve" xmlns:serif="http://www.serif.com/" style="fill-rule:evenodd;clip-rule:evenodd;stroke-linecap:round;stroke-linejoin:round;stroke-miterlimit:1.5;"><rect x="11.62" y="4.913" width="0.873" height="8" style="fill:none;stroke:#5a5a5a;stroke-width:2px;"/><rect x="6.826" y="12.037" width="5" height="0.873" style="fill:none;stroke:#5a5a5a;stroke-width:2px;"/><path d="M12.057,21.664c-5.303,0 -9.608,-4.305 -9.608,-9.607c0,-5.303 4.305,-9.608 9.608,-9.608c5.302,0 9.607,4.305 9.607,9.608" style="fill:none;stroke:#5a5a5a;stroke-width:2px;"/><path d="M20.075,14.949l0,6.059l-6.059,0l0,-6.059m8.603,-2.544l-11.147,0l0,11.086l11.086,0l0.061,-11.086Z" style="fill:#ef6c00;fill-rule:nonzero;"/><path d="M18.966,19.899l-1.886,-1.502l-1.955,1.502l0,-3.841l3.841,0l0,3.841Z" style="fill:#ef6c00;fill-rule:nonzero;"/></svg>